<mxfile modified="None" type="device">
  <diagram name="many-simple.drawio" id="83171beaa3e6">
    <mxGraphModel dx="1600" dy="850" grid="1" gridSize="10" guides="1" tooltips="1" connect="1"
      arrows="1" fold="1" page="1" pageScale="1" pageWidth="1100" pageHeight="850" math="0"
      shadow="0">
      <root>
        <mxCell id="0" />
        <mxCell id="1" parent="0" />
        <mxCell id="83171beaa3e6-11" style="edgeStyle=orthogonalEdgeStyle;rounded=0;orthogonalLoop=1;jettySize=auto;html=1;exitX=0.5;exitY=1;exitDx=0;exitDy=0;entryX=0.5;entryY=0;entryDx=0;entryDy=0;startArrow=classic;endArrow=none;curved=0;dashed=0" edge="1" parent="1" source="83171beaa3e6-1" target="83171beaa3e6-2">
          <mxGeometry relative="1" as="geometry" />
        </mxCell>
        <mxCell id="83171beaa3e6-12" value="pmd::SubClassOf" style="edgeLabel;html=1;align=center;verticalAlign=middle;resizable=0;points=[];" vertex="1" connectable="0" parent="83171beaa3e6-11">
          <mxGeometry x="0" y="0" relative="1" as="geometry">
            <mxPoint as="offset" />
          </mxGeometry>
        </mxCell>        <mxCell id="83171beaa3e6-13" style="edgeStyle=orthogonalEdgeStyle;rounded=0;orthogonalLoop=1;jettySize=auto;html=1;exitX=0.5;exitY=1;exitDx=0;exitDy=0;entryX=0.5;entryY=0;entryDx=0;entryDy=0;startArrow=classic;endArrow=none;curved=0;dashed=0" edge="1" parent="1" source="83171beaa3e6-1" target="83171beaa3e6-3">
          <mxGeometry relative="1" as="geometry" />
        </mxCell>
        <mxCell id="83171beaa3e6-14" value="pmd::SubClassOf" style="edgeLabel;html=1;align=center;verticalAlign=middle;resizable=0;points=[];" vertex="1" connectable="0" parent="83171beaa3e6-13">
          <mxGeometry x="0" y="0" relative="1" as="geometry">
            <mxPoint as="offset" />
          </mxGeometry>
        </mxCell>        <mxCell id="83171beaa3e6-15" style="edgeStyle=orthogonalEdgeStyle;rounded=0;orthogonalLoop=1;jettySize=auto;html=1;exitX=0.5;exitY=1;exitDx=0;exitDy=0;entryX=0.5;entryY=0;entryDx=0;entryDy=0;startArrow=classic;endArrow=none;curved=0;dashed=0" edge="1" parent="1" source="83171beaa3e6-2" target="83171beaa3e6-4">
          <mxGeometry relative="1" as="geometry" />
        </mxCell>
        <mxCell id="83171beaa3e6-16" value="pmd::SubClassOf" style="edgeLabel;html=1;align=center;verticalAlign=middle;resizable=0;points=[];" vertex="1" connectable="0" parent="83171beaa3e6-15">
          <mxGeometry x="0" y="0" relative="1" as="geometry">
            <mxPoint as="offset" />
          </mxGeometry>
        </mxCell>        <mxCell id="83171beaa3e6-17" style="edgeStyle=orthogonalEdgeStyle;rounded=0;orthogonalLoop=1;jettySize=auto;html=1;exitX=0.5;exitY=1;exitDx=0;exitDy=0;entryX=0.5;entryY=0;entryDx=0;entryDy=0;startArrow=classic;endArrow=none;curved=0;dashed=0" edge="1" parent="1" source="83171beaa3e6-3" target="83171beaa3e6-5">
          <mxGeometry relative="1" as="geometry" />
        </mxCell>
        <mxCell id="83171beaa3e6-18" value="pmd::SubClassOf" style="edgeLabel;html=1;align=center;verticalAlign=middle;resizable=0;points=[];" vertex="1" connectable="0" parent="83171beaa3e6-17">
          <mxGeometry x="0" y="0" relative="1" as="geometry">
            <mxPoint as="offset" />
          </mxGeometry>
        </mxCell>        <mxCell id="83171beaa3e6-19" style="edgeStyle=orthogonalEdgeStyle;rounded=0;orthogonalLoop=1;jettySize=auto;html=1;exitX=0.5;exitY=1;exitDx=0;exitDy=0;entryX=0.5;entryY=0;entryDx=0;entryDy=0;startArrow=classic;endArrow=none;curved=0;dashed=0" edge="1" parent="1" source="83171beaa3e6-3" target="83171beaa3e6-6">
          <mxGeometry relative="1" as="geometry" />
        </mxCell>
        <mxCell id="83171beaa3e6-20" value="pmd::SubClassOf" style="edgeLabel;html=1;align=center;verticalAlign=middle;resizable=0;points=[];" vertex="1" connectable="0" parent="83171beaa3e6-19">
          <mxGeometry x="0" y="0" relative="1" as="geometry">
            <mxPoint as="offset" />
          </mxGeometry>
        </mxCell>        <mxCell id="83171beaa3e6-21" style="edgeStyle=orthogonalEdgeStyle;rounded=0;orthogonalLoop=1;jettySize=auto;html=1;exitX=0.5;exitY=1;exitDx=0;exitDy=0;entryX=0.5;entryY=0;entryDx=0;entryDy=0;startArrow=classic;endArrow=none;curved=0;dashed=0" edge="1" parent="1" source="83171beaa3e6-4" target="83171beaa3e6-7">
          <mxGeometry relative="1" as="geometry" />
        </mxCell>
        <mxCell id="83171beaa3e6-22" value="pmd::SubClassOf" style="edgeLabel;html=1;align=center;verticalAlign=middle;resizable=0;points=[];" vertex="1" connectable="0" parent="83171beaa3e6-21">
          <mxGeometry x="0" y="0" relative="1" as="geometry">
            <mxPoint as="offset" />
          </mxGeometry>
        </mxCell>        <mxCell id="83171beaa3e6-23" style="edgeStyle=orthogonalEdgeStyle;rounded=0;orthogonalLoop=1;jettySize=auto;html=1;exitX=0.5;exitY=1;exitDx=0;exitDy=0;entryX=0.5;entryY=0;entryDx=0;entryDy=0;startArrow=classic;endArrow=none;curved=0;dashed=0" edge="1" parent="1" source="83171beaa3e6-4" target="83171beaa3e6-8">
          <mxGeometry relative="1" as="geometry" />
        </mxCell>
        <mxCell id="83171beaa3e6-24" value="pmd::SubClassOf" style="edgeLabel;html=1;align=center;verticalAlign=middle;resizable=0;points=[];" vertex="1" connectable="0" parent="83171beaa3e6-23">
          <mxGeometry x="0" y="0" relative="1" as="geometry">
            <mxPoint as="offset" />
          </mxGeometry>
        </mxCell>        <mxCell id="83171beaa3e6-25" style="edgeStyle=orthogonalEdgeStyle;rounded=0;orthogonalLoop=1;jettySize=auto;html=1;exitX=0.5;exitY=1;exitDx=0;exitDy=0;entryX=0.5;entryY=0;entryDx=0;entryDy=0;startArrow=classic;endArrow=none;curved=0;dashed=0" edge="1" parent="1" source="83171beaa3e6-4" target="83171beaa3e6-9">
          <mxGeometry relative="1" as="geometry" />
        </mxCell>
        <mxCell id="83171beaa3e6-26" value="pmd::SubClassOf" style="edgeLabel;html=1;align=center;verticalAlign=middle;resizable=0;points=[];" vertex="1" connectable="0" parent="83171beaa3e6-25">
          <mxGeometry x="0" y="0" relative="1" as="geometry">
            <mxPoint as="offset" />
          </mxGeometry>
        </mxCell>        <mxCell id="83171beaa3e6-27" style="edgeStyle=orthogonalEdgeStyle;rounded=0;orthogonalLoop=1;jettySize=auto;html=1;exitX=0.5;exitY=1;exitDx=0;exitDy=0;entryX=0.5;entryY=0;entryDx=0;entryDy=0;startArrow=classic;endArrow=none;curved=0;dashed=0" edge="1" parent="1" source="83171beaa3e6-9" target="83171beaa3e6-10">
          <mxGeometry relative="1" as="geometry" />
        </mxCell>
        <mxCell id="83171beaa3e6-28" value="pmd::SubClassOf" style="edgeLabel;html=1;align=center;verticalAlign=middle;resizable=0;points=[];" vertex="1" connectable="0" parent="83171beaa3e6-27">
          <mxGeometry x="0" y="0" relative="1" as="geometry">
            <mxPoint as="offset" />
          </mxGeometry>
        </mxCell>        <mxCell id="83171beaa3e6-1" value="term_1" style="rounded=0;whiteSpace=wrap;html=1;fillColor=#aaaaaa;strokeColor=#000000;fontStyle=1;" parent="1" vertex="1">
          <mxGeometry x="1025.0" y="0" width="200" height="80" as="geometry" />
        </mxCell>
        <mxCell id="83171beaa3e6-2" value="term_2" style="rounded=0;whiteSpace=wrap;html=1;fillColor=#aaaaaa;strokeColor=#000000;fontStyle=1;" parent="1" vertex="1">
          <mxGeometry x="615.0" y="180" width="200" height="80" as="geometry" />
        </mxCell>
        <mxCell id="83171beaa3e6-3" value="term_3" style="rounded=0;whiteSpace=wrap;html=1;fillColor=#aaaaaa;strokeColor=#000000;fontStyle=1;" parent="1" vertex="1">
          <mxGeometry x="1640.0" y="180" width="200" height="80" as="geometry" />
        </mxCell>
        <mxCell id="83171beaa3e6-4" value="term_4" style="rounded=0;whiteSpace=wrap;html=1;fillColor=#aaaaaa;strokeColor=#000000;fontStyle=1;" parent="1" vertex="1">
          <mxGeometry x="615.0" y="360" width="200" height="80" as="geometry" />
        </mxCell>
        <mxCell id="83171beaa3e6-5" value="term_5" style="rounded=0;whiteSpace=wrap;html=1;fillColor=#aaaaaa;strokeColor=#000000;fontStyle=1;" parent="1" vertex="1">
          <mxGeometry x="1435.0" y="360" width="200" height="80" as="geometry" />
        </mxCell>
        <mxCell id="83171beaa3e6-6" value="term_6" style="rounded=0;whiteSpace=wrap;html=1;fillColor=#aaaaaa;strokeColor=#000000;fontStyle=1;" parent="1" vertex="1">
          <mxGeometry x="1845.0" y="360" width="200" height="80" as="geometry" />
        </mxCell>
        <mxCell id="83171beaa3e6-7" value="term_7" style="rounded=0;whiteSpace=wrap;html=1;fillColor=#aaaaaa;strokeColor=#000000;fontStyle=1;" parent="1" vertex="1">
          <mxGeometry x="205.0" y="540" width="200" height="80" as="geometry" />
        </mxCell>
        <mxCell id="83171beaa3e6-8" value="term_8" style="rounded=0;whiteSpace=wrap;html=1;fillColor=#aaaaaa;strokeColor=#000000;fontStyle=1;" parent="1" vertex="1">
          <mxGeometry x="615.0" y="540" width="200" height="80" as="geometry" />
        </mxCell>
        <mxCell id="83171beaa3e6-9" value="term_9" style="rounded=0;whiteSpace=wrap;html=1;fillColor=#aaaaaa;strokeColor=#000000;fontStyle=1;" parent="1" vertex="1">
          <mxGeometry x="1025.0" y="540" width="200" height="80" as="geometry" />
        </mxCell>
        <mxCell id="83171beaa3e6-10" value="term_10" style="rounded=0;whiteSpace=wrap;html=1;fillColor=#aaaaaa;strokeColor=#000000;fontStyle=1;" parent="1" vertex="1">
          <mxGeometry x="1025.0" y="720" width="200" height="80" as="geometry" />
        </mxCell>

      </root>
    </mxGraphModel>
  </diagram>
</mxfile>